# xmcd CD database file
#
# Track frame offsets:
#	150
#	21107
#	41893
#	66273
#	82852
#	96689
#
# Disc length: 1653 seconds
#
# Revision: 1
# Processed by: cddbd v1.5.2PL0 Copyright (c) Steve Scherf et al.
# Submitted via: CDex 1.51
#
DISCID=4c067306
DTITLE=sue orfield band - now let us sing
DYEAR=2007
DGENRE=Jazz
TTITLE0=dance of the stella d'oro
TTITLE1=no cash value
TTITLE2=darkness, darkness
TTITLE3=little somethin' like this
TTITLE4=road to niblivia
TTITLE5=two cats named bob
EXTD=YEAR: 2007
EXTT0=
EXTT1=
EXTT2=
EXTT3=
EXTT4=
EXTT5=
PLAYORDER=
